<?xml version="1.0" encoding="UTF-8"?>
<svg xmlns="http://www.w3.org/2000/svg" xmlns:xlink="http://www.w3.org/1999/xlink" contentScriptType="text/ecmascript" zoomAndPan="magnify" baseProfile="tiny" contentStyleType="text/css" version="1.1" width="44px" preserveAspectRatio="xMidYMid meet" viewBox="0 0 44 44" height="44px" x="0px" y="0px">
    <g>
        <g>
            <rect x="1.105" width="44" fill="none" y="0.781" height="44"/>
            <circle r="16.873" fill-opacity="0.2" cx="22.105" stroke-opacity="0.2" cy="22.782"/>
            <path d="M 22.105 6.948 C 13.358999 6.948 6.2699995 14.035999 6.2699995 22.782 C 6.2699995 31.529 13.3619995 38.614 22.105 38.614 C 30.849998 38.614 37.939 31.529 37.939 22.781998 C 37.938 14.036 30.848 6.948 22.105 6.948 z " fill-opacity="0.5" stroke-opacity="0.5"/>
            <linearGradient x1="1444.1924" gradientTransform="matrix(1 0 0 1 -1422.0879 -3563.2129)" y1="3569.0771" x2="1444.1924" gradientUnits="userSpaceOnUse" y2="3600.8499" xlink:type="simple" xlink:actuate="onLoad" id="SVGID_1_" xlink:show="other">
                <stop stop-color="#ffffff" offset="0"/>
                <stop stop-color="#b2b2b2" offset="1"/>
            </linearGradient>
            <circle fill="url(#SVGID_1_)" r="15.834" cx="22.105" cy="21.743"/>
            <linearGradient x1="476.1113" gradientTransform="matrix(1 0 0 -1 -454.0059 -937.0127)" y1="-943.9219" x2="476.1113" gradientUnits="userSpaceOnUse" y2="-958.7559" xlink:type="simple" xlink:actuate="onLoad" id="SVGID_2_" xlink:show="other">
                <stop stop-color="#ffffff" offset="0"/>
                <stop stop-color="#e5e5e5" offset="1"/>
            </linearGradient>
            <path fill="url(#SVGID_2_)" d="M 7.271 21.743 C 7.271 13.55 13.913 6.9090004 22.105 6.9090004 C 30.294998 6.9090004 36.939 13.55 36.939 21.743 L 7.271 21.743 z "/>
            <linearGradient x1="1444.1943" gradientTransform="matrix(1 0 0 -1 -1422.0664 -3234.0908)" y1="-3264.8306" x2="1444.1943" gradientUnits="userSpaceOnUse" y2="-3227.5371" xlink:type="simple" xlink:actuate="onLoad" id="SVGID_3_" xlink:show="other">
                <stop stop-color="#ffffff" offset="0"/>
                <stop stop-color="#3e3e3e" offset="1"/>
            </linearGradient>
            <path fill="url(#SVGID_3_)" d="M 16.257 23.154 C 16.257 26.495998 18.05 28.74 20.721 28.74 C 21.687 28.74 22.943 28.424 24.009 27.123 C 24.737001 28.143 25.877 28.74 27.209002 28.74 C 30.962002 28.74 33.293003 25.829 33.293003 21.144 C 33.293003 14.203999 29.320004 10.059999 22.660004 10.059999 C 16.838003 10.059999 10.963004 13.664 10.963004 21.717999 C 10.963004 25.470999 12.052004 28.416998 14.197004 30.478998 C 16.860004 33.031998 20.280005 33.566998 22.682003 33.566998 C 24.661003 33.566998 26.744003 33.187996 28.384003 32.536 C 28.710003 32.406 28.926003 32.09 28.926003 31.734999 L 28.926003 29.676998 C 28.926003 29.396997 28.786003 29.133999 28.555002 28.972998 C 28.409002 28.872997 28.242002 28.818998 28.065002 28.818998 C 27.962002 28.818998 27.864002 28.839998 27.764002 28.877998 C 26.102001 29.491 24.483002 29.801998 22.946003 29.801998 C 17.702003 29.801998 15.258003 27.197998 15.258003 21.609997 C 15.258003 16.817997 18.123003 13.841997 22.737003 13.841997 C 24.317003 13.841997 25.633003 14.219997 26.651003 14.949997 L 23.673002 14.949997 C 20.251 14.944 16.258 17.095 16.257 23.154 z M 27.852 16.152 C 28.748 17.391 29.208 19.107 29.208 21.26 C 29.208 24.307 28.193 25.119 27.598 25.119 C 27.189999 25.119 27.02 25.119 27.02 23.383 C 27.021 22.066 27.301 19.635 27.852 16.152 z M 23.657 21.586 C 23.299 24.512001 22.55 25.979 21.407999 25.979 C 21.407999 25.979 21.407999 25.979 21.407 25.979 C 20.029999 25.979 19.685 24.811 19.685 22.926 C 19.685 20.238 20.831 17.706001 23.25 17.706001 L 24.104 17.706001 L 23.657 21.586 z " fill-opacity="0.5" stroke-opacity="0.5"/>
            <linearGradient x1="1202.1504" gradientTransform="matrix(1 0 0 1 -1180.0176 -2347.0254)" y1="2357.918" x2="1202.1504" gradientUnits="userSpaceOnUse" y2="2379.707" xlink:type="simple" xlink:actuate="onLoad" id="SVGID_4_" xlink:show="other">
                <stop stop-color="#ff149e" offset="0"/>
                <stop stop-color="#c11b6b" offset="1"/>
            </linearGradient>
            <path fill="url(#SVGID_4_)" d="M 23.671 15.804 L 27.036999 15.804 C 26.454998 19.462 26.161999 21.986 26.161999 23.378 C 26.161999 24.702 26.161999 25.979 27.599998 25.979 C 28.290998 25.979 30.071 25.413 30.071 21.258 C 30.071 15.705 27.175 12.973999 22.737 12.973999 C 17.955 12.973999 14.401999 16.035 14.401999 21.599998 C 14.401999 27.23 16.881 30.651999 22.952 30.651999 C 24.595 30.651999 26.299 30.328 28.069 29.672998 L 28.069 31.734999 C 24.854 33.017998 18.677 33.583 14.798 29.855999 C 12.821 27.96 11.829 25.248 11.829 21.716 C 11.829 14.476999 16.877 10.917999 22.664001 10.917999 C 28.945002 10.917999 32.435 14.69 32.435 21.140999 C 32.435 24.682 30.922 27.877998 27.210001 27.877998 C 25.897001 27.877998 24.537 27.125998 24.134 25.295998 C 23.333 27.019997 22.196001 27.877998 20.723001 27.877998 C 18.242 27.877998 17.118002 25.580997 17.118002 23.148998 C 17.118 17.665 20.588 15.804 23.671 15.804 L 23.671 15.804 z M 23.657 21.586 L 24.102999 17.707 L 23.25 17.707 C 20.833 17.707 19.685 20.240002 19.685 22.926 C 19.685 24.813 20.029 25.979 21.407 25.979 C 22.549 25.979 23.299 24.516 23.657 21.586 L 23.657 21.586 z "/>
            <linearGradient x1="1202.1367" gradientTransform="matrix(1 0 0 1 -1180.0176 -2347.0254)" y1="2362.8047" x2="1202.1367" gradientUnits="userSpaceOnUse" y2="2368.834" xlink:type="simple" xlink:actuate="onLoad" id="SVGID_5_" xlink:show="other">
                <stop stop-color="#ffbfff" offset="0"/>
                <stop stop-color="#ffbfff" offset="0.1978"/>
                <stop stop-color="#de21e8" offset="1"/>
            </linearGradient>
            <path fill="url(#SVGID_5_)" d="M 17.198 21.834 L 19.751999 21.834 C 20.026999 19.593 21.164999 17.707 23.249998 17.707 L 24.103998 17.707 L 23.660997 21.586 C 23.644997 21.674 23.637997 21.749 23.623997 21.834 L 26.244997 21.834 C 26.361998 20.382 26.629997 18.382 27.040997 15.803999 L 23.670998 15.803999 C 20.852 15.804 17.716 17.37 17.198 21.834 z "/>
            <linearGradient x1="1202.1406" gradientTransform="matrix(1 0 0 1 -1180.0176 -2347.0254)" y1="2357.9199" x2="1202.1406" gradientUnits="userSpaceOnUse" y2="2368.8359" xlink:type="simple" xlink:actuate="onLoad" id="SVGID_6_" xlink:show="other">
                <stop stop-color="#ffbfff" offset="0"/>
                <stop stop-color="#ffbfff" offset="0.1978"/>
                <stop stop-color="#de21e8" offset="1"/>
            </linearGradient>
            <path fill="url(#SVGID_6_)" d="M 14.402 21.834 C 14.401 21.754 14.396001 21.681 14.396001 21.601 C 14.396001 16.035 17.951 12.974999 22.736 12.974999 C 27.173 12.974999 30.068 15.705 30.068 21.258999 C 30.068 21.461998 30.060001 21.648998 30.047 21.835 L 32.406002 21.835 C 32.419003 21.605999 32.427002 21.376 32.427002 21.143 C 32.427002 14.691999 28.940002 10.92 22.656002 10.92 C 16.867002 10.92 11.819002 14.479 11.819002 21.718 C 11.819002 21.758001 11.823002 21.796 11.823002 21.836 L 14.4 21.836 L 14.402 21.834 L 14.402 21.834 z "/>
        </g>
    </g>
    <g>
        <g>
            <path d="M 43.05 34.789 C 42.709 34.363003 42.242 34.021 41.795998 33.716003 C 41.414997 33.454002 41.017 33.362003 40.628998 33.15 C 39.725 32.655003 38.96 32.026 37.909996 31.940002 C 37.927998 30.754002 38.290997 28.792002 37.461994 27.816002 C 37.353992 27.708002 37.230995 27.623001 37.091995 27.559002 C 36.815994 27.435001 36.857994 27.288002 36.782997 26.996002 C 36.667995 26.534002 36.545 26.074001 36.412 25.616003 C 36.188 24.841003 35.940998 24.071003 35.662 23.312004 C 35.177998 21.999004 34.628998 20.590004 33.782997 19.456005 C 33.614998 19.229006 33.315998 19.100004 33.084995 18.943005 C 32.546997 18.580004 32.121994 18.129005 31.635996 17.704004 C 30.626995 16.823004 29.286995 16.619003 28.087996 16.045004 C 27.455996 15.743004 26.890995 15.439004 26.226995 15.774004 C 25.576996 16.103004 25.393995 16.826004 25.772995 17.443005 C 26.125996 17.962004 26.867994 18.352005 27.365995 18.736004 C 27.267996 19.926004 28.506996 21.138004 29.208996 21.989004 C 28.508995 23.035004 29.072996 24.076004 29.592997 25.065004 C 29.153997 25.416004 28.926996 25.941004 28.761997 26.464005 C 28.657997 26.794004 28.577997 27.128004 28.520998 27.470005 C 28.454998 27.874004 28.389997 27.863005 28.049997 28.070005 C 26.886997 28.781006 26.598997 29.924006 26.262997 31.177006 C 26.195997 31.424006 26.191998 31.818007 25.958996 31.935005 C 25.742996 32.043007 25.540997 32.141006 25.311996 32.229004 C 24.729996 32.452003 24.047997 32.635002 23.536997 33.003002 C 23.101997 33.316 22.804996 33.896004 22.326996 34.135002 C 21.958996 34.319 21.570995 34.459003 21.186996 34.604004 C 21.165997 34.793003 21.132996 34.983006 21.139996 35.174004 L 20.287996 35.174004 C 23.897997 37.872 27.889996 39.880005 32.464996 40.318005 C 33.760998 40.443005 35.048996 40.697006 36.357998 40.800003 C 36.996998 40.851 37.661 40.907 38.270996 40.683002 C 38.890995 40.455 39.474995 40.123 40.039997 39.785004 C 41.095997 39.150005 42.137997 38.465004 42.924995 37.503002 C 43.423 36.893 43.442 35.454 43.05 34.789 " fill-opacity="0.2" stroke-opacity="0.2"/>
            <path d="M 40.721 33.868 C 40.392002 33.868 38.661 32.592 38.207 32.592 C 37.998 32.592 37.636 32.557 37.268 32.518997 C 37.280003 31.720997 37.301003 30.172997 37.301003 29.750998 C 37.301003 29.174997 37.281002 28.534998 37.014004 28.267998 C 36.746002 27.998999 36.395004 28.102997 36.395004 28.102997 C 35.036003 22.128998 33.264004 19.821997 33.264004 19.821997 C 33.264004 19.821997 32.276005 19.203997 31.946003 18.874996 C 31.618004 18.544996 30.546003 17.473995 30.051003 17.473995 C 29.556002 17.473995 27.702003 16.567995 27.702003 16.567995 L 26.824003 16.233995 C 26.484003 16.315996 25.963003 16.537996 26.314003 17.114996 C 27.165003 17.783997 28.041002 18.456997 28.144003 18.535995 C 28.107002 18.510996 27.990004 18.474995 27.990004 18.997995 C 27.990004 19.615995 30.029003 21.983995 30.029003 21.983995 C 30.029003 21.983995 29.473003 22.540995 29.473003 23.075996 C 29.473003 23.591997 30.351004 25.137997 30.417004 25.252996 L 30.404003 25.350996 C 30.370003 25.361996 30.335003 25.371996 30.298002 25.383997 C 29.226002 25.712997 29.062002 28.267998 29.062002 28.267998 C 29.062002 28.267998 28.238003 28.597998 27.702002 29.132998 C 27.420002 29.415997 26.956001 30.899998 26.621002 32.366997 C 26.434002 32.422997 26.238003 32.491997 26.178001 32.552998 C 26.055002 32.677 24.118002 33.293 23.829002 33.581997 C 23.541002 33.869995 23.025002 34.385998 22.861002 34.549995 C 22.696001 34.713997 21.770002 35.064995 21.770002 35.064995 C 21.770002 35.064995 21.739002 35.660995 22.195002 35.812996 L 22.195002 35.812996 C 22.195002 35.812996 26.910002 39.327995 33.031002 39.729996 C 33.420002 39.834995 33.785004 39.925995 34.004 39.925995 C 34.54 39.925995 36.93 40.336994 37.795002 40.172997 C 38.660004 40.009 41.317 38.257996 41.708 37.865997 C 42.101 37.474 42.615 36.96 42.615 36.795 C 42.615 36.629997 42.615 35.559 42.615 35.311996 C 42.617 35.064 41.05 33.868 40.721 33.868 z " fill-opacity="0.4" stroke-opacity="0.4"/>
            <linearGradient x1="98.6152" gradientTransform="matrix(1 0 0 -1 -56 -102)" y1="-137.6011" x2="77.7695" gradientUnits="userSpaceOnUse" y2="-137.6011" xlink:type="simple" xlink:actuate="onLoad" id="SVGID_7_" xlink:show="other">
                <stop stop-color="#c25737" offset="0"/>
                <stop stop-color="#331513" offset="1"/>
            </linearGradient>
            <path fill="url(#SVGID_7_)" d="M 40.721 33.233 C 40.392002 33.233 38.661 31.957 38.207 31.957 C 37.754 31.957 36.602 31.792 36.189 31.792 C 35.775997 31.792 27.001 31.628 27.001 31.628 C 27.001 31.628 26.302 31.792 26.178 31.916 C 26.053999 32.04 24.118 32.658 23.828999 32.946 C 23.539997 33.233997 23.026 33.749 22.859999 33.915 C 22.696 34.079002 21.769 34.43 21.769 34.43 C 21.769 34.43 21.737999 35.025 22.193998 35.177002 L 22.193998 35.177002 C 22.193998 35.177002 26.908998 38.692 33.031998 39.094 L 33.031998 39.094 C 33.420998 39.199 33.784996 39.29 34.004997 39.29 C 34.539997 39.29 36.930996 39.701 37.794 39.537003 C 38.66 39.373 41.315998 37.622 41.708 37.230003 C 42.101 36.838005 42.615 36.324005 42.615 36.159004 C 42.615 35.994003 42.615 34.924004 42.615 34.676003 C 42.617 34.43 41.05 33.233 40.721 33.233 z "/>
            <linearGradient x1="90.665" gradientTransform="matrix(1 0 0 -1 -56 -102)" y1="-118.4575" x2="90.665" gradientUnits="userSpaceOnUse" y2="-140.9731" xlink:type="simple" xlink:actuate="onLoad" id="SVGID_8_" xlink:show="other">
                <stop stop-color="#ffd6a6" offset="0"/>
                <stop stop-color="#b8693b" offset="1"/>
            </linearGradient>
            <path fill="url(#SVGID_8_)" d="M 35.469 38.807 C 36.265003 38.899998 37.194 39.112 37.975002 38.839 C 38.795002 38.555 39.589 37.963 40.308002 37.486 C 40.813004 37.151 41.879 36.549 41.975002 35.882 C 42.015003 35.608 42.068 35.147 41.968002 34.884 C 41.837 34.541 41.218002 34.196 40.913002 34.023 C 40.205 33.62 39.476 33.252 38.766003 32.847 C 38.364002 32.618 37.995003 32.589 37.544003 32.547 C 37.315002 32.526 37.086002 32.5 36.857002 32.476 C 36.502003 32.437 36.632004 32.284 36.636 31.971003 C 36.649002 31.136003 36.677002 30.308002 36.722 29.475002 C 36.742 29.109003 36.753 28.729002 36.668 28.370003 C 36.558 27.903004 36.279 28.159002 35.929 28.263002 C 35.309002 25.534002 34.587 22.773003 33.22 20.310001 C 32.956 19.833002 32.702 19.495 32.236 19.204002 C 31.725 18.885002 31.343 18.497002 30.892 18.102003 C 30.374 17.650003 29.841 17.503002 29.211 17.277002 C 28.560001 17.043003 27.956001 16.693003 27.305 16.458002 C 27.712 16.775002 28.12 17.089003 28.529 17.404001 L 28.257 17.786001 C 28.704 18.318 29.042 18.915 29.493 19.472002 C 29.746 19.784002 29.953 20.125002 30.181 20.455002 C 30.324 20.664001 31.026 21.356003 30.765 21.510002 C 32.774 25.212002 34.593 30.718002 35.01 38.757004 C 35.155 38.771 35.31 38.788 35.469 38.807 "/>
            <path fill="#270f0b" d="M 26.609 32.195 C 26.314 33.495 26.125 34.774 26.261 35.178 C 26.548 36.043003 30.421 37.980003 34.581 37.321003 C 38.742 36.661003 38.208 34.890003 38.208 34.890003 L 37.26 32.788002 "/>
            <linearGradient x1="88.2148" gradientTransform="matrix(1 0 0 -1 -56 -102)" y1="-117.5977" x2="88.2148" gradientUnits="userSpaceOnUse" y2="-139.0361" xlink:type="simple" xlink:actuate="onLoad" id="SVGID_9_" xlink:show="other">
                <stop stop-color="#c25737" offset="0"/>
                <stop stop-color="#331513" offset="1"/>
            </linearGradient>
            <path fill="url(#SVGID_9_)" d="M 38.209 34.471 L 37.260998 32.37 C 37.260998 32.37 37.302 29.692 37.302 29.114998 C 37.302 28.538998 37.281 27.899998 37.015 27.631998 C 36.746 27.363998 36.397 27.466997 36.397 27.466997 C 35.036 21.492996 33.265 19.186996 33.265 19.186996 C 33.265 19.186996 32.276 18.568996 31.946999 18.239996 C 31.617998 17.909996 30.546999 16.838997 30.050999 16.838997 C 29.557 16.838997 27.703 15.932997 27.703 15.932997 L 26.825998 15.598997 C 26.484999 15.680997 25.963999 15.902997 26.314 16.480997 C 27.165998 17.149998 28.042 17.822998 28.144 17.901997 C 28.109 17.877996 27.991 17.840996 27.991 18.363997 C 27.991 18.980997 30.029999 21.349997 30.029999 21.349997 C 30.029999 21.349997 29.473999 21.906996 29.473999 22.440996 C 29.473999 22.957996 30.352999 24.502996 30.417 24.617996 L 30.405 24.715996 C 30.371 24.726995 30.336 24.736996 30.298 24.748997 C 29.227001 25.078997 29.062 27.632998 29.062 27.632998 C 29.062 27.632998 28.238 27.962997 27.703001 28.498997 C 27.392 28.808996 26.861 30.568996 26.525002 32.163998 C 26.281002 33.322998 26.139002 34.394997 26.261002 34.76 C 26.548002 35.625 30.421001 37.561996 34.581 36.904 C 38.743 36.241 38.209 34.471 38.209 34.471 z "/>
            <linearGradient x1="88.5156" gradientTransform="matrix(1 0 0 -1 -56 -102)" y1="-118.4556" x2="88.5156" gradientUnits="userSpaceOnUse" y2="-140.3913" xlink:type="simple" xlink:actuate="onLoad" id="SVGID_10_" xlink:show="other">
                <stop stop-color="#ffd6a6" offset="0"/>
                <stop stop-color="#b8693b" offset="1"/>
            </linearGradient>
            <path fill="url(#SVGID_10_)" d="M 37.727 34.669 C 37.727 34.321 36.825 32.431 36.63 32.449997 C 36.643 31.520996 36.649002 30.594997 36.711002 29.666996 C 36.736004 29.291996 36.757004 28.907995 36.701004 28.533997 C 36.611004 27.934998 36.402004 28.121996 35.930004 28.260996 C 35.310005 25.531996 34.588005 22.771996 33.221004 20.307995 C 32.957005 19.830996 32.703003 19.491995 32.238003 19.200994 C 31.726004 18.881994 31.344004 18.493994 30.893003 18.099995 C 30.375004 17.647995 29.842003 17.500996 29.212004 17.274994 C 28.561005 17.040995 27.957005 16.690994 27.306004 16.455994 C 27.713003 16.772993 28.122004 17.085993 28.530003 17.401993 L 28.258003 17.783993 C 28.705004 18.315992 29.044003 18.912992 29.494003 19.469994 C 29.747004 19.781994 29.954002 20.122993 30.182003 20.452993 C 30.325003 20.661993 31.027002 21.353992 30.766003 21.507994 C 32.568 24.827993 34.213 29.602993 34.836002 36.347992 C 35.668 36.194 37.659 35.813 37.727 34.669 "/>
            <polygon fill-opacity="0.2" stroke-opacity="0.2" points="35,30.911 29.229,30.348 27.031,25.057 26.725,25.887 25.053,30.413     19.509,30.724 23.837,34.398 22.254,40.021 27.27,36.788 32.036,39.432 30.594,34.29   "/>
            <polygon fill-opacity="0.4" stroke-opacity="0.4" points="27.051,26.006 28.99,30.673 34.092,31.172 30.199,34.16     31.479,38.725 27.258,36.386 22.838,39.233 24.231,34.278 20.396,31.021 25.301,30.747   "/>
            <linearGradient x1="1038.8789" gradientTransform="matrix(0.7211 0.6929 0.6929 -0.7211 -213.8174 -1229.5935)" y1="-733.2583" x2="1065.9924" gradientUnits="userSpaceOnUse" y2="-761.4751" xlink:type="simple" xlink:actuate="onLoad" id="SVGID_11_" xlink:show="other">
                <stop stop-color="#ffe23d" offset="0"/>
                <stop stop-color="#e48717" offset="1"/>
            </linearGradient>
            <polygon fill="url(#SVGID_11_)" points="27.051,25.66 28.99,30.327 34.092,30.825 30.199,33.812 31.479,38.378 27.258,36.038     22.838,38.887 24.231,33.932 20.396,30.675 25.301,30.4   "/>
            <linearGradient x1="237.7871" gradientTransform="matrix(1 0 0 1 -212.0024 -849.0029)" y1="875.9668" x2="237.7871" gradientUnits="userSpaceOnUse" y2="886.5332" xlink:type="simple" xlink:actuate="onLoad" id="SVGID_12_" xlink:show="other">
                <stop stop-color="#fff87b" offset="0"/>
                <stop stop-color="#ffe817" offset="1"/>
            </linearGradient>
            <path fill="url(#SVGID_12_)" d="M 29.957 30.9 L 28.658 30.772 L 27.076 26.963 L 25.639 30.859 L 21.612 31.084 L 24.772 33.767 L 23.713 37.531 C 26.037 34.098 28.281 32.07 29.957 30.9 z "/>
        </g>
    </g>
</svg>
