<?xml version="1.0" encoding="UTF-8"?>
<svg xmlns="http://www.w3.org/2000/svg" xmlns:xlink="http://www.w3.org/1999/xlink" contentScriptType="text/ecmascript" zoomAndPan="magnify" baseProfile="tiny" contentStyleType="text/css" version="1.1" width="44px" preserveAspectRatio="xMidYMid meet" viewBox="0 0 44 44" height="44px" x="0px" y="0px">
    <g>
        <g>
            <g>
                <g>
                    <g>
                        <polyline fill="none" points="0,44 0,0 44,0 44,44      "/>
                    </g>
                </g>
            </g>
            <g>
                <g>
                    <path d="M 31.766 7.791 L 30.856 8.066 L 30.856 8.066 L 31.766 7.781 C 31.44 6.738 30.516 6.191 29.514 5.9160004 C 28.9 5.747 28.26 5.654 27.621 5.581 C 26.918001 5.5 26.128 5.627 25.448 5.401 C 22.385 5.254 19.244 5.222 16.209 5.71 C 15.25 5.8650002 14.149 6.1 13.476999 6.8640003 C 12.593999 7.873 12.69 9.526 12.669999 10.776 C 12.615999 14.065001 12.668999 17.359001 12.668999 20.649 C 12.668999 23.934 12.677999 27.218 12.628999 30.501 C 12.604999 32.031998 12.590999 33.565998 12.654999 35.098 C 12.709999 36.369 12.630999 38.131 13.677999 39.051 C 14.524999 39.796997 15.813998 39.949997 16.887 40.088997 C 18.119999 40.253 19.376999 40.353996 20.622 40.316998 C 22.962 40.249996 25.251 40.413 27.612999 40.128 C 28.776999 39.996 30.4 39.829998 31.237999 38.906 C 32.009 38.057 32.018997 36.649 32.09 35.589996 C 32.274 32.545998 32.085 29.466995 32.085 26.413998 C 32.085 23.316998 32.085 20.215998 32.085 17.118998 C 32.085 15.571998 32.064 14.020998 32.093 12.473997 C 32.12 10.911 32.213 9.304 31.766 7.791 " fill-opacity="0.2"/>
                    <path d="M 30.85 8.068 C 30.251 6.138 26.501 6.434 24.994 6.377 C 21.953999 6.2599998 18.870998 6.1759996 15.8619995 6.7349997 C 14.667 6.957 13.912999 7.4609995 13.73 8.719 C 13.521 10.159 13.613 11.673 13.62 13.122 C 13.641 16.312 13.624 19.505 13.624 22.695 C 13.624 25.972 13.6449995 29.248 13.613999 32.527 C 13.599999 33.921 13.572 35.326 13.705999 36.713 C 13.829999 38.001 14.426 38.715 15.685999 38.991 C 18.379 39.601 21.394 39.511 24.134998 39.420002 C 25.585999 39.371002 27.075998 39.316 28.518997 39.066 C 29.858997 38.832 30.835997 38.376003 31.075996 36.960003 C 31.391996 34.999004 31.145996 32.839005 31.145996 30.870003 C 31.145996 28.243002 31.145996 25.626003 31.145996 23.001003 C 31.145996 20.485003 31.145996 17.974003 31.145996 15.458003 C 31.139 13.105 31.54 10.336 30.85 8.068 " fill-opacity="0.4"/>
                    <path fill="#4c4c4c" d="M 30.848 7.107 C 30.538 6.112 29.407 5.857 28.499 5.7079997 C 26.92 5.4469995 25.326 5.3689995 23.73 5.3279996 C 22.244 5.2879996 20.754 5.3129997 19.271 5.3989997 C 17.865 5.482 16.272 5.4799995 14.961 6.0569997 C 13.936001 6.5099998 13.759001 7.5039997 13.669001 8.518999 C 13.522 10.140999 13.570001 11.770999 13.602 13.397999 C 13.662001 16.672998 13.62 19.953 13.62 23.227 C 13.62 26.359999 13.651999 29.495998 13.566999 32.625 C 13.530999 33.941 13.410999 35.583 13.957999 36.814 C 14.478999 37.992 16.187 38.097 17.282999 38.236 C 20.438 38.614 23.697998 38.562 26.861 38.298 C 27.95 38.207 29.437 38.152 30.314 37.407 C 31.21 36.638 31.127998 35.076 31.157999 34.017002 C 31.282 29.502003 31.133999 24.954002 31.133999 20.437002 C 31.133999 18.153002 31.108 15.866002 31.133999 13.583002 C 31.157 11.475 31.475 9.168 30.848 7.107 "/>
                    <path fill="#030303" d="M 29.955 6.778 C 29.023 5.848 22.382 5.848 22.382 5.848 C 22.382 5.848 15.734 5.848 14.8029995 6.778 C 14.8029995 6.778 14.158999 6.503 14.158999 10.138 C 14.158999 10.806999 14.158999 11.915999 14.158999 13.285999 C 14.158999 19.359999 14.158999 30.515 14.158999 30.515 C 14.158999 31.880999 14.158999 32.994 14.158999 33.661 C 14.158999 37.3 14.8029995 37.022 14.8029995 37.022 C 15.733999 37.953 22.382 37.953 22.382 37.953 C 22.382 37.953 29.024 37.953 29.955 37.022 C 29.955 37.022 30.601 37.298 30.601 33.662 C 30.601 32.993 30.601 31.883999 30.601 30.515999 C 30.601 30.515999 30.601 19.357998 30.601 13.285999 C 30.601 11.915999 30.601 10.808 30.601 10.138999 C 30.598 6.503 29.955 6.778 29.955 6.778 z "/>
                    <linearGradient x1="1258.3828" gradientTransform="matrix(1 0 0 -1 -1236.0068 -3949.0156)" y1="-3983.0176" x2="1258.3828" gradientUnits="userSpaceOnUse" y2="-3958.7227" xlink:type="simple" xlink:actuate="onLoad" id="SVGID_1_" xlink:show="other">
                        <stop stop-color="#585858" offset="0"/>
                        <stop stop-color="#161616" offset="1"/>
                    </linearGradient>
                    <rect x="15.083" width="14.585" fill="url(#SVGID_1_)" y="9.707" height="24.295"/>
                    <path fill="#ffffff" d="M 28.471 38.086 C 29.159 37.968998 30.237001 37.794 30.647001 37.148 C 31.091002 36.46 31.091002 35.424 31.124 34.631 C 31.179 33.187 31.140001 31.73 31.140001 30.283 C 31.140001 27.637001 31.140001 24.996 31.140001 22.346 C 31.140001 18.574001 31.140001 14.803 31.140001 11.029 C 31.140001 9.944 31.523 7.0680003 30.374 6.347 C 28.528 5.183 25.638 5.379 23.533 5.326 L 23.533 38.467 C 25.173 38.425 26.844 38.366 28.471 38.086 " fill-opacity="0.2"/>
                    <path fill="#10d600" d="M 17.484 35.618 C 17.595999 35.618 17.689 35.711 17.689 35.825 L 17.689 35.825 C 17.689 35.937 17.597 36.030003 17.484 36.030003 L 15.638999 36.030003 C 15.524999 36.030003 15.435999 35.937004 15.435999 35.825 L 15.435999 35.825 C 15.435999 35.711002 15.524999 35.618 15.638999 35.618 L 17.484 35.618 z "/>
                    <path fill="#ffffff" d="M 23.759 35.618 C 23.871 35.618 23.963001 35.711 23.963001 35.825 L 23.963001 35.825 C 23.963001 35.937 23.871002 36.030003 23.759 36.030003 L 21.913 36.030003 C 21.799 36.030003 21.710001 35.937004 21.710001 35.825 L 21.710001 35.825 C 21.710001 35.711002 21.798 35.618 21.913 35.618 L 23.759 35.618 z "/>
                    <path fill="#ff0000" d="M 29.411 35.618 C 29.522999 35.618 29.616 35.711 29.616 35.825 L 29.616 35.825 C 29.616 35.937 29.522999 36.030003 29.411 36.030003 L 27.564 36.030003 C 27.453 36.030003 27.361 35.937004 27.361 35.825 L 27.361 35.825 C 27.361 35.711002 27.453 35.618 27.564 35.618 L 29.411 35.618 z "/>
                    <path fill="#c6c6c6" d="M 24.092 7.584 C 24.092 7.7920003 23.921999 7.96 23.717 7.96 L 21.391998 7.96 C 21.183998 7.96 21.015999 7.793 21.015999 7.584 L 21.015999 7.584 C 21.015999 7.376 21.185 7.209 21.391998 7.209 L 23.714998 7.209 C 23.922 7.209 24.092 7.375 24.092 7.584 L 24.092 7.584 z "/>
                </g>
            </g>
        </g>
    </g>
    <g>
        <g>
            <g>
                <path d="M 40.868 22.559 C 40.868 20.882 39.995 19.676 38.965 18.467 C 38.896 18.637 38.826 18.807 38.757 18.977999 C 38.643 19.260998 38.521 19.005999 38.412 19.161 C 38.224 19.428999 38.132 19.847 38.009 20.147999 C 37.808 20.641998 37.606 21.134998 37.405 21.627998 C 37.259 21.982998 37.025997 21.895998 36.643997 21.939999 C 36.490997 21.956999 36.051 21.376999 36.032997 21.237 C 36.007996 21.046 36.317997 20.592 36.392998 20.421999 C 36.767 19.578 37.14 18.734 37.513996 17.89 C 35.803997 17.639 34.195995 17.712 32.817997 18.924 C 32.646996 19.073 31.971996 20.008999 31.864998 19.964 C 31.743998 19.912 31.355997 19.673 31.241999 19.698 C 31.047998 20.056 30.714998 20.427 30.717999 20.83 C 31.036999 21.453 30.892998 22.261 30.727999 22.906 C 30.342999 24.414 29.627998 26.166 28.484999 27.267 C 27.600998 28.117 26.717 28.967001 25.835 29.818 C 23.272999 32.288002 20.71 34.756 18.196 37.273003 C 17.269 38.201004 15.785999 39.321003 15.637999 40.691 C 15.398998 42.906002 17.824999 44.171 19.705997 43.446003 C 19.817997 43.398003 20.007998 43.462 20.044998 43.420002 C 20.181997 43.266003 20.319998 43.112003 20.456999 42.957 C 20.782 42.642002 21.064 42.269 21.364998 41.93 C 22.173998 41.016 22.983997 40.103 23.793999 39.191 C 25.842999 36.883003 27.894999 34.579002 29.960999 32.287003 C 31.682 30.378002 33.188 28.388002 35.803997 27.706003 C 36.658997 27.487003 37.521996 27.425003 38.292995 26.945004 C 38.669994 26.711004 39.974995 25.871004 39.873997 25.564003 C 40.518 24.701 40.868 23.635 40.868 22.559 M 18.251 42.105 C 18.319 41.861 18.543 41.57 18.234999 41.482 C 17.678999 41.137997 17.935999 40.501 18.4 40.260998 C 19.012 40.069996 19.119 41.105 18.788 41.450996 C 18.643 41.598995 18.583 41.601997 18.407 41.554996 C 18.314 41.688 18.296 41.948 18.251 42.105 " fill-opacity="0.2"/>
                <g>
                    <path d="M 39.233 19.664 C 39.202003 19.628 39.170002 19.591 39.139 19.555 C 38.984 19.812 38.836 19.642 38.706 19.958 C 38.482002 20.503 38.259003 21.048 38.034 21.593 C 37.988 21.706001 37.801 22.385 37.672 22.399 C 37.342 22.437 36.744 22.635 36.439 22.504 C 35.93 22.286 35.279 21.529999 35.513 21.001999 C 35.907 20.116 36.299 19.230999 36.693 18.345999 C 35.543 18.155998 34.328 18.48 33.404 19.186998 C 33.198997 19.343998 32.098 20.682 32.165 20.708998 C 31.911001 20.603998 31.657001 20.499998 31.405 20.390997 C 31.434 20.448997 31.464 20.506996 31.493 20.564997 C 31.404 20.565996 31.315 20.567997 31.226 20.569996 C 31.994 22.066996 30.997 24.159996 30.324 25.508995 C 30.001999 26.156996 29.658998 26.929995 29.154999 27.415995 C 27.225998 29.272995 25.296 31.126995 23.373999 32.990993 C 21.220999 35.080994 19.003998 37.136993 16.973 39.347992 C 15.45 41.004993 16.668 43.400993 18.93 43.081993 C 20.124 42.748993 20.716 41.795994 21.525 40.88299 C 24.317 37.733994 27.11 34.58499 29.932999 31.461992 C 30.956999 30.326992 31.933998 29.065992 33.223 28.224993 C 34.181 27.666992 35.389 26.959993 36.547 26.959993 C 36.77 26.909994 38.438 26.525993 38.438 26.174994 C 40.504 24.693 40.912 21.635 39.233 19.664 M 18.25 42.105 C 16.969 41.785 17.139 39.776 18.442 39.666 C 20.091 39.666 19.779 42.56 18.25 42.105 " fill-opacity="0.4"/>
                </g>
                <path fill="#444444" d="M 39.449 20.514 C 38.254 21.575 36.753002 22.867 36.753002 22.867 L 35.028004 20.564001 L 36.317005 17.658 C 35.139004 17.481 33.897003 17.855001 33.004005 18.775002 C 31.537006 20.289001 31.578005 22.703001 33.090004 24.169003 C 34.603004 25.634003 37.017006 25.597002 38.482002 24.083002 C 39.434 23.102 39.752 21.746 39.449 20.514 z "/>
                <linearGradient x1="1633.7559" gradientTransform="matrix(0.7184 0.6956 0.6956 -0.7184 -1123.1006 -1130.0948)" y1="-17.7549" x2="1633.7559" gradientUnits="userSpaceOnUse" y2="-24.8027" xlink:type="simple" xlink:actuate="onLoad" id="SVGID_2_" xlink:show="other">
                    <stop stop-color="#bcbab7" offset="0"/>
                    <stop stop-color="#69665d" offset="1"/>
                </linearGradient>
                <path fill="url(#SVGID_2_)" d="M 39.694 20.51 C 38.5 21.571001 36.998 22.862 36.998 22.862 L 35.273003 20.56 L 36.56 17.653 C 35.384003 17.476 34.141003 17.85 33.248 18.771 C 31.782001 20.284 31.823002 22.7 33.336002 24.165 C 34.849003 25.630001 37.265003 25.593 38.731003 24.078001 C 39.679 23.1 39.998 21.742 39.694 20.51 z "/>
                <path fill="#ffffff" d="M 36.561 17.652 C 35.385002 17.475 34.142002 17.849 33.249 18.77 C 32.9 19.131 32.636 19.544 32.457 19.984001 C 33.401 20.133001 34.36 20.187 35.304 20.497002 L 36.561 17.652 z " fill-opacity="0.5"/>
                <g>
                    <linearGradient x1="1633.875" gradientTransform="matrix(0.7184 0.6956 0.6956 -0.7184 -1123.1006 -1130.0948)" y1="-48.6201" x2="1633.875" gradientUnits="userSpaceOnUse" y2="-17.0063" xlink:type="simple" xlink:actuate="onLoad" id="SVGID_3_" xlink:show="other">
                        <stop stop-color="#bcbab7" offset="0"/>
                        <stop stop-color="#69665d" offset="1"/>
                    </linearGradient>
                    <path fill="url(#SVGID_3_)" d="M 33.177 27.392 C 33.23 27.364 33.292 27.325 33.368 27.269001 C 33.369 27.269001 33.369 27.268002 33.369 27.268002 C 33.543 27.158 33.717 27.051003 33.88 26.955002 C 35.028 26.352001 36.532 26.116001 36.532 26.116001 L 36.534 26.115002 C 37.434002 25.969002 38.298 25.546001 38.978 24.841002 C 40.559002 23.205002 40.616 20.655003 39.166 18.958002 L 38.052002 21.682003 L 36.49 21.860003 L 36.212 21.742002 L 31.873001 19.920002 C 31.872002 19.920002 31.872002 19.920002 31.872002 19.921001 L 31.595001 19.802002 C 32.7 21.959002 29.684002 26.522001 29.684002 26.522001 L 29.656002 26.511002 C 29.649002 26.524002 29.643002 26.532001 29.637003 26.537 C 29.514004 26.665 19.222004 36.509003 17.285004 38.642 C 17.235004 38.684 17.187004 38.729 17.141005 38.775997 C 16.352005 39.590996 16.373005 40.889996 17.187004 41.678997 C 17.931004 42.399 19.077003 42.444996 19.872004 41.826996 C 19.883003 41.835995 19.889004 41.840996 19.889004 41.840996 C 19.889004 41.840996 19.921003 41.802998 19.980003 41.736996 C 20.017004 41.702995 20.056004 41.668995 20.090004 41.631996 C 20.170004 41.549995 20.241003 41.462997 20.304005 41.369995 C 22.401005 39.000996 31.752005 28.451996 32.344006 27.978996 C 32.561 27.807 32.861 27.598 33.177 27.392 z M 17.669 41.108 C 17.135 40.592003 17.122 39.742 17.638 39.210003 C 18.154001 38.681004 19.006 38.663002 19.539001 39.179005 C 20.072002 39.698006 20.086002 40.547005 19.570002 41.079006 C 19.054 41.611 18.203 41.626 17.669 41.108 z "/>
                    <path fill="#ffffff" d="M 38.979 24.84 C 40.56 23.204 40.617 20.654 39.167 18.957 L 38.053 21.681 L 36.491 21.859 L 36.213 21.741 L 31.874 19.918999 C 31.873001 19.918999 31.873001 19.918999 31.873001 19.919998 L 31.596 19.800999 C 31.896 20.385998 31.892 21.147 31.728 21.946999 L 38.865 24.956999 C 38.898 24.918 38.938 24.879 38.979 24.84 z " fill-opacity="0.5"/>
                </g>
                <path fill="#ffffff" d="M 17.078 38.717 C 17.125 38.667 17.174 38.621 17.224998 38.578 L 17.224998 38.578 C 17.375998 38.412 17.575998 38.2 17.815998 37.951 L 17.815998 37.951 C 20.699999 34.973 29.463997 26.591 29.573997 26.475 L 29.573997 26.475 L 29.574997 26.474 C 29.576998 26.472 29.580997 26.467001 29.583998 26.461 L 29.583998 26.461 L 29.621998 26.402 L 29.646997 26.413 C 29.714998 26.308 29.868998 26.067 30.060997 25.729 L 30.060997 25.729 C 30.325996 25.27 30.666998 24.634 30.973997 23.933 L 30.973997 23.933 C 31.588997 22.532001 32.047997 20.863 31.514997 19.839 L 31.514997 19.839 L 31.405998 19.627 L 31.829998 19.807001 L 31.831999 19.807001 L 36.246 21.660002 L 36.503998 21.770002 L 37.989998 21.601002 L 39.138996 18.793001 L 39.230995 18.902 C 40.707996 20.633 40.649994 23.234001 39.039993 24.901001 L 39.039993 24.901001 C 38.354992 25.604 37.497993 26.034 36.604992 26.191002 L 36.604992 26.191002 L 36.603992 26.192001 L 36.544994 26.202002 C 36.543995 26.202002 36.172993 26.261002 35.655994 26.393002 L 35.655994 26.393002 C 35.140995 26.527002 34.482994 26.735 33.922993 27.03 L 33.922993 27.03 C 33.759995 27.126001 33.589993 27.232 33.41799 27.339 L 33.41799 27.339 C 33.34199 27.394001 33.275993 27.437 33.21999 27.466002 L 33.21999 27.466002 C 32.90799 27.671001 32.60999 27.878002 32.39599 28.049002 L 32.39599 28.049002 C 32.361988 28.075 32.273987 28.160002 32.15299 28.289001 L 32.15299 28.289001 C 30.520988 29.972002 22.329988 39.217003 20.375988 41.424004 L 20.375988 41.424004 C 20.311989 41.518005 20.236988 41.610004 20.153988 41.695004 L 20.153988 41.695004 C 20.117989 41.736004 20.079988 41.770004 20.042988 41.804005 L 20.042988 41.804005 C 19.985989 41.868004 19.956987 41.902004 19.956987 41.902004 L 19.956987 41.902004 L 19.905987 41.960003 L 19.875986 41.943005 C 19.050985 42.543003 17.888987 42.484005 17.128986 41.750004 L 17.128986 41.750004 C 16.278 40.919 16.256 39.565 17.078 38.717 L 17.078 38.717 z M 17.942 38.072 C 17.699999 38.322998 17.498999 38.534 17.348 38.699997 L 17.348 38.699997 L 17.344 38.704 L 17.341 38.706997 C 17.293 38.747997 17.247 38.790997 17.202 38.837997 L 17.202 38.837997 C 16.449 39.617996 16.469 40.858997 17.247 41.616997 L 17.247 41.616997 C 17.959 42.304996 19.057 42.35 19.818 41.760998 L 19.818 41.760998 L 19.868 41.719997 L 19.874 41.727997 C 19.886 41.711998 19.899 41.698997 19.915 41.678997 L 19.915 41.678997 L 19.919 41.673996 L 19.923 41.670998 C 19.960001 41.64 19.995 41.606 20.028 41.569996 L 20.028 41.569996 C 20.104 41.491997 20.173 41.408997 20.233 41.319996 L 20.233 41.319996 L 20.236 41.314995 L 20.24 41.310993 C 22.188 39.110992 30.39 29.856993 32.027 28.164993 L 32.027 28.164993 C 32.154 28.033993 32.238 27.949993 32.291 27.909994 L 32.291 27.909994 C 32.512 27.732994 32.812 27.521994 33.13 27.314995 L 33.13 27.314995 L 33.135002 27.312994 L 33.141003 27.310993 C 33.188004 27.285994 33.249004 27.247993 33.320004 27.194994 L 33.320004 27.194994 L 33.324005 27.191994 C 33.500004 27.080994 33.673004 26.974995 33.845005 26.873993 L 33.845005 26.873993 C 34.878006 26.334993 36.176006 26.086992 36.468006 26.036993 L 36.468006 26.036993 L 36.468006 26.035994 L 36.525005 26.025993 C 37.407005 25.882994 38.254005 25.466993 38.923004 24.775993 L 38.923004 24.775993 C 40.441006 23.209993 40.525005 20.782993 39.200005 19.120993 L 39.200005 19.120993 L 38.118004 21.756992 L 36.481003 21.943993 L 36.181004 21.816992 L 31.915005 20.025991 L 31.914005 20.027992 L 31.762005 19.964993 C 32.188004 21.090992 31.713005 22.667992 31.133005 24.003992 L 31.133005 24.003992 C 30.514006 25.421991 29.757006 26.565992 29.756004 26.566992 L 29.756004 26.566992 L 29.713005 26.626991 L 29.680004 26.612991 C 29.238 27.047 20.765 35.156 17.942 38.072 L 17.942 38.072 z M 17.576 39.148 C 18.126 38.580997 19.031 38.565998 19.599 39.115997 L 19.599 39.115997 C 20.167002 39.664997 20.182001 40.569996 19.632002 41.135998 L 19.632002 41.135998 C 19.082003 41.701996 18.176003 41.721996 17.609001 41.168 L 17.609001 41.168 L 17.670002 41.107998 L 17.731003 41.045 C 18.231003 41.525997 19.025003 41.512997 19.508003 41.018997 L 19.508003 41.018997 C 19.991003 40.517998 19.978003 39.722996 19.480003 39.240997 L 19.480003 39.240997 C 18.980003 38.757996 18.186003 38.769997 17.702003 39.268997 L 17.702003 39.268997 C 17.220003 39.763996 17.233004 40.558 17.731003 41.045 L 17.731003 41.045 L 17.670002 41.107998 L 17.609001 41.168 C 17.041 40.623 17.027 39.715 17.576 39.148 L 17.576 39.148 z "/>
                <path d="M 38.902 25.035 C 38.842 25.01 38.783 24.986 38.721 24.965 C 38.085 25.545 37.319 25.899 36.518 26.029 L 36.458 26.038 L 36.458 26.039 C 36.169 26.09 34.87 26.338 33.838 26.876999 C 33.670002 26.977999 33.496002 27.084 33.321003 27.195 L 33.316 27.197 C 33.239002 27.252 33.178 27.289 33.134003 27.314001 L 33.131004 27.316002 L 33.126003 27.318003 C 32.809002 27.525003 32.506004 27.736002 32.284004 27.913002 C 32.234005 27.953003 32.146004 28.037003 32.019005 28.168001 C 30.381004 29.859001 22.181004 39.113 20.233006 41.314003 L 20.229006 41.318005 L 20.226006 41.323006 C 20.165005 41.411007 20.097006 41.496006 20.020006 41.573006 C 19.987005 41.607006 19.951006 41.641006 19.915007 41.674007 L 19.912006 41.676006 L 19.908007 41.682007 C 19.893007 41.70001 19.880007 41.715008 19.867006 41.731007 L 19.861006 41.723007 L 19.814005 41.76301 C 19.068005 42.33901 18.000006 42.308006 17.287004 41.65701 C 17.267004 41.653008 17.247004 41.64201 17.227005 41.63801 L 17.123005 41.744007 C 17.882006 42.479008 19.045006 42.538006 19.870005 41.938007 L 19.900005 41.95701 L 19.951006 41.89901 C 19.951006 41.89901 19.982006 41.86601 20.037006 41.80001 C 20.075006 41.76701 20.112007 41.73201 20.148006 41.69401 C 20.231007 41.610012 20.305006 41.518013 20.370007 41.42301 C 22.325006 39.21501 30.518005 29.970013 32.147007 28.287012 C 32.271008 28.159012 32.35901 28.073011 32.393005 28.047012 C 32.604004 27.877012 32.906006 27.668013 33.217007 27.465012 C 33.271008 27.434011 33.336006 27.393011 33.41501 27.33801 C 33.584007 27.23101 33.757008 27.125011 33.92001 27.028011 C 34.47701 26.73401 35.13901 26.525011 35.65301 26.392012 C 36.16901 26.257011 36.54101 26.200012 36.54101 26.200012 L 36.601013 26.191011 L 36.601013 26.18901 C 37.442 26.043 38.245 25.658 38.902 25.035 z " fill-opacity="0.6"/>
                <path fill="#ffffff" d="M 39.233 18.901 L 39.139 18.792 L 39.072 18.958 L 38.802 18.963 L 37.704998 21.632 L 36.504997 21.769 L 36.246998 21.658998 L 36.186996 21.634998 L 35.374996 20.547998 L 36.690994 17.583998 L 36.576996 17.566998 C 35.824997 17.452997 35.043995 17.560997 34.340996 17.886997 C 33.850994 18.079998 33.396996 18.370996 33.005997 18.773996 C 32.661995 19.129997 32.406998 19.539997 32.226997 19.971996 L 31.831997 19.806995 L 31.829996 19.807995 L 31.405996 19.627995 L 31.493996 19.801994 L 31.223995 19.805994 C 32.328995 21.961994 29.312996 26.525993 29.312996 26.525993 L 29.284996 26.515993 C 29.276997 26.527992 29.268995 26.535994 29.266996 26.540993 C 29.141996 26.668993 18.850996 36.512993 16.913998 38.644993 C 16.864998 38.686993 16.815998 38.731995 16.769999 38.780994 C 15.981998 39.594994 16.002998 40.894993 16.817 41.682995 C 17.143 41.998997 17.549 42.176994 17.967 42.237995 C 18.603998 42.439995 19.313 42.341995 19.870998 41.935997 L 19.901 41.954 L 19.952 41.896 C 19.952 41.896 19.983 41.863 20.038 41.797 C 20.076 41.764 20.113 41.729 20.149 41.689 C 20.232 41.607 20.306 41.514 20.371 41.419 C 22.326 39.21 30.52 29.966 32.149002 28.283998 C 32.272003 28.154999 32.36 28.068998 32.395 28.043999 C 32.609 27.873 32.908 27.664999 33.219 27.460999 C 33.273003 27.430998 33.341003 27.388998 33.417004 27.332998 C 33.585003 27.227999 33.758003 27.120998 33.922005 27.023998 C 34.479004 26.728998 35.141006 26.520998 35.654003 26.387 C 36.171 26.254 36.542004 26.196 36.543003 26.196 L 36.602 26.186998 L 36.603 26.185999 C 36.818 26.148998 37.033 26.092 37.243 26.022999 C 37.318 25.998 37.387 25.961998 37.459 25.933998 C 37.593 25.880999 37.73 25.829998 37.857 25.763998 C 37.938 25.721998 38.017998 25.667997 38.094997 25.620998 C 38.206997 25.552998 38.322998 25.487999 38.428997 25.409998 C 38.510998 25.348997 38.591995 25.278997 38.669 25.212997 C 38.745 25.149998 38.821 25.097998 38.892998 25.030998 C 38.888996 25.028997 38.885 25.026999 38.878998 25.026 C 38.927 24.98 38.982998 24.945 39.025997 24.896 C 40.654 23.232 40.708 20.631 39.233 18.901 z M 17.73 41.048 C 17.232 40.563 17.22 39.769 17.701 39.271 C 17.979 38.985 18.359001 38.868 18.726 38.903 C 18.887 38.966 19.039 39.06 19.171 39.189 C 19.705 39.705997 19.719 40.555 19.202 41.085 C 19.074999 41.221 18.926 41.319 18.767 41.388 C 18.401 41.432 18.018 41.323 17.73 41.048 z " fill-opacity="0.4"/>
            </g>
            <g>
                <path fill="#ffffff" d="M 17.729 41.046 C 17.23 40.562 17.218 39.768 17.7 39.27 C 17.766 39.202 17.839 39.143 17.916 39.095 C 17.932001 39.083 17.948 39.079002 17.964 39.07 C 18.03 39.032 18.097 38.998 18.167 38.972 C 18.178999 38.967 18.191 38.964 18.203 38.958 C 18.282 38.934002 18.362 38.911 18.442999 38.904 C 18.446999 38.904 18.452 38.903 18.454998 38.902 C 18.544998 38.89 18.634998 38.889 18.725998 38.9 C 18.805998 38.931 18.883999 38.97 18.957998 39.015003 C 19.032999 39.063004 19.103998 39.122 19.170998 39.186005 C 19.303997 39.315006 19.405998 39.464005 19.473997 39.625004 L 37.436996 21.663004 L 36.503998 21.770004 L 36.246 21.660004 L 36.185997 21.635004 L 35.372997 20.548004 L 36.686996 17.584003 L 36.575996 17.566004 C 36.402996 17.540005 36.229996 17.529003 36.056995 17.526003 C 36.000996 17.525003 35.944996 17.528004 35.890995 17.530003 C 35.769997 17.533003 35.650993 17.541002 35.525993 17.555002 C 35.464993 17.562002 35.405994 17.571003 35.348995 17.581001 C 35.227997 17.601002 35.109997 17.627 34.987995 17.659 C 34.938995 17.673 34.882996 17.684 34.832996 17.7 C 34.663998 17.752 34.497997 17.813002 34.338997 17.888 C 34.100998 17.983 33.871 18.1 33.650997 18.245 C 33.636997 18.254002 33.625996 18.264 33.611996 18.272001 C 33.398994 18.417002 33.192997 18.581001 33.005997 18.774002 C 32.830997 18.953003 32.682995 19.145002 32.552998 19.346003 C 32.422997 19.546003 32.314 19.756002 32.225 19.971003 L 31.828999 19.806002 L 31.828 19.806002 L 31.403 19.626001 L 31.492 19.800001 L 31.228 19.805 C 32.333 21.961 29.317001 26.525 29.317001 26.525 L 29.289001 26.515 C 29.281002 26.526999 29.273 26.535 29.270002 26.539999 C 29.146002 26.668 18.855003 36.512 16.918003 38.643997 C 16.869003 38.685997 16.820004 38.731 16.774004 38.78 C 15.986004 39.593998 16.007004 40.893997 16.821005 41.682 C 16.907005 41.765 16.999004 41.837997 17.095005 41.903 C 17.116005 41.92 17.137005 41.926 17.158005 41.938 L 17.914005 41.186 C 17.85 41.145 17.786 41.101 17.729 41.046 z " fill-opacity="0.4"/>
            </g>
        </g>
    </g>
</svg>
